<?xml version="1.0" encoding="UTF-8"?>
<!DOCTYPE svg PUBLIC "-//W3C//DTD SVG 1.1//EN" "http://www.w3.org/Graphics/SVG/1.1/DTD/svg11.dtd">
<!-- Creator: CorelDRAW -->
<svg xmlns="http://www.w3.org/2000/svg" xml:space="preserve" width="6.82666in" height="6.82666in" style="shape-rendering:geometricPrecision; text-rendering:geometricPrecision; image-rendering:optimizeQuality; fill-rule:evenodd; clip-rule:evenodd"
viewBox="0 0 6.82666 6.82666"
 xmlns:xlink="http://www.w3.org/1999/xlink"
 version="1.1">
 <defs>
  <style type="text/css">
   <![CDATA[
    .fil11 {fill:none}
    .fil5 {fill:black}
    .fil2 {fill:#1B75BC}
    .fil1 {fill:#212121}
    .fil0 {fill:#222025}
    .fil3 {fill:#2D2D2D}
    .fil8 {fill:#333333}
    .fil6 {fill:#6D6E71}
    .fil7 {fill:#BE1E2D}
    .fil10 {fill:#C1C1C1}
    .fil9 {fill:#C82026}
    .fil4 {fill:white}
   ]]>
  </style>
 </defs>
 <g id="Layer_x0020_1">
  <metadata id="CorelCorpID_0Corel-Layer"/>
  <g id="_588466032">
   <g id="Guides">
   </g>
   <g id="Layer_2">
   </g>
   <g id="Layer_3">
   </g>
   <g id="Layer_4">
   </g>
   <g id="Layer_5">
   </g>
   <g id="Layer_6">
   </g>
   <g id="Layer_7">
   </g>
   <g id="Layer_8">
   </g>
   <g id="Layer_9">
   </g>
   <g id="Layer_10">
   </g>
   <g id="Layer_11">
   </g>
   <g id="Layer_12">
   </g>
   <g id="Layer_13">
   </g>
   <g id="Layer_14">
   </g>
   <g id="Layer_15">
   </g>
   <g id="Layer_16">
   </g>
   <g id="Layer_17">
    <g>
     <g>
      <g>
       <path id="_620620808" class="fil0" d="M4.66091 5.89333l-2.49513 0c-0.120768,0 -0.218665,-0.0979016 -0.218665,-0.218665l0 -4.52267c0,-0.120768 0.0979016,-0.218665 0.218665,-0.218665l2.4951 -3.93701e-006c0.120768,0 0.218665,0.0979016 0.218665,0.218665l3.93701e-006 4.52267c0,0.120768 -0.0979016,0.218669 -0.218634,0.218669z"/>
      </g>
     </g>
     <g>
      <g>
       <path id="_620620544" class="fil1" d="M3.64141 5.63293l-0.456134 0c-0.0441654,0 -0.08,-0.0358346 -0.08,-0.08 0,-0.0441654 0.0358346,-0.08 0.08,-0.08l0.456165 0c0.0441654,0 0.08,0.0358346 0.08,0.08 0,0.0441654 -0.0358307,0.08 -0.0800315,0.08z"/>
      </g>
     </g>
     <g>
      <g>
       <rect id="_620621144" class="fil2" x="2.09441" y="1.338" width="2.6379" height="3.84213"/>
      </g>
     </g>
     <g>
      <g>
       <circle id="_620620064" class="fil3" cx="3.41335" cy="5.53673" r="0.193433"/>
      </g>
     </g>
     <g>
      <g>
       <g>
        <circle id="_620619176" class="fil3" cx="2.94948" cy="1.13567" r="0.0483661"/>
       </g>
      </g>
      <g>
       <g>
        <path id="_620618984" class="fil3" d="M3.88178 1.18403l-0.656634 0c-0.0242008,0 -0.0437992,-0.0195984 -0.0437992,-0.0437992l0 -0.00293307c0,-0.0242008 0.0195984,-0.0437992 0.0437992,-0.0437992l0.656602 0c0.0242008,0 0.0437992,0.0195984 0.0437992,0.0437992l0 0.00293307c3.14961e-005,0.0241654 -0.0196024,0.0437992 -0.0437677,0.0437992z"/>
       </g>
      </g>
     </g>
     <g>
      <g>
       <g>
        <rect id="_620618000" class="fil4" x="2.18441" y="2.28226" width="2.45787" height="1.9536"/>
       </g>
      </g>
      <g>
       <g>
        <rect id="_620617496" class="fil5" x="2.26122" y="2.37347" width="2.30426" height="1.4928"/>
       </g>
      </g>
      <g>
       <g>
        <g>
         <g>
          <path id="_620617232" class="fil6" d="M4.43208 3.66506l-2.03746 0c-0.00663386,0 -0.012,-0.00536614 -0.012,-0.012l0 0c0,-0.00663386 0.00536614,-0.012 0.012,-0.012l2.03746 0c0.00663386,0 0.012,0.00536614 0.012,0.012l0 0c0,0.00663386 -0.00536614,0.012 -0.012,0.012z"/>
         </g>
        </g>
       </g>
       <g>
        <g>
         <g>
          <g>
           <path id="_620616872" class="fil7" d="M3.51108 3.66506l-1.11646 0c-0.00663386,0 -0.012,-0.00536614 -0.012,-0.012l0 0c0,-0.00663386 0.00536614,-0.012 0.012,-0.012l1.11646 0 0 0.024z"/>
          </g>
         </g>
        </g>
        <g>
         <g>
          <circle id="_620616512" class="fil7" cx="3.51108" cy="3.65306" r="0.0254646"/>
         </g>
        </g>
       </g>
      </g>
      <g>
       <g>
        <g>
         <circle id="_620615264" class="fil8" cx="3.41335" cy="3.11987" r="0.171398"/>
        </g>
       </g>
       <g>
        <g>
         <g>
          <polygon id="_620614952" class="fil4" points="3.50141,3.11987 3.36194,3.03996 3.36194,3.19976 "/>
         </g>
        </g>
       </g>
      </g>
      <g>
       <g>
        <g>
         <rect id="_620614424" class="fil4" x="2.40388" y="3.7336" width="0.0192008" height="0.0529331"/>
        </g>
       </g>
       <g>
        <g>
         <rect id="_620613200" class="fil4" x="2.44108" y="3.7336" width="0.0192008" height="0.0529331"/>
        </g>
       </g>
      </g>
      <g>
       <g>
        <g>
         <rect id="_620611640" class="fil4" x="2.57528" y="3.7336" width="0.00740157" height="0.0529331"/>
        </g>
       </g>
       <g>
        <g>
         <g>
          <polygon id="_588496632" class="fil4" points="2.57528,3.76006 2.52908,3.7336 2.52908,3.78653 "/>
         </g>
        </g>
       </g>
      </g>
      <g>
       <g>
        <g>
         <polygon id="_588466512" class="fil4" points="2.68118,3.73353 2.66591,3.7484 2.65078,3.7484 2.65078,3.7716 2.66591,3.7716 2.68118,3.78646 "/>
        </g>
       </g>
       <g>
        <g>
         <path id="_588465144" class="fil4" d="M2.68785 3.77286l0 -0.00333465c0.00523228,0 0.0094685,-0.00426772 0.0094685,-0.0094685 0,-0.00520079 -0.00426772,-0.0094685 -0.0094685,-0.0094685l0 -0.00333465c0.00706693,0 0.0127992,0.00573228 0.0127992,0.0127992 0,0.00706693 -0.00573228,0.0128071 -0.0127992,0.0128071z"/>
        </g>
       </g>
       <g>
        <g>
         <path id="_588465480" class="fil4" d="M2.68785 3.78823l0 -0.00333465c0.0137008,0 0.0248661,-0.0111339 0.0248661,-0.0248661 0,-0.0137323 -0.0111339,-0.0248661 -0.0248661,-0.0248661l0 -0.00333465c0.0155315,0 0.0282008,0.0126339 0.0282008,0.0282008 0,0.0155669 -0.0126654,0.0282008 -0.0282008,0.0282008z"/>
        </g>
       </g>
      </g>
      <g>
       <g>
        <rect id="_588464712" class="fil9" x="4.16328" y="4.1144" width="0.280799" height="0.0527992"/>
       </g>
      </g>
      <g>
       <g>
        <rect id="_588464568" class="fil10" x="2.26122" y="3.9404" width="0.622366" height="0.0527992"/>
       </g>
      </g>
      <g>
       <g>
        <rect id="_588496032" class="fil10" x="3.94311" y="3.9404" width="0.622366" height="0.0527992"/>
       </g>
      </g>
      <g>
       <g>
        <rect id="_588496296" class="fil10" x="4.49988" y="4.1144" width="0.0655984" height="0.0527992"/>
       </g>
      </g>
      <g>
       <g>
        <rect id="_588495288" class="fil10" x="2.26122" y="4.0056" width="0.348201" height="0.0312008"/>
       </g>
      </g>
      <g>
       <g>
        <g>
         <g>
          <circle id="_588494592" class="fil9" cx="2.30591" cy="4.1315" r="0.0447008"/>
         </g>
        </g>
        <g>
         <g>
          <circle id="_588494928" class="fil4" cx="2.30591" cy="4.11796" r="0.0135315"/>
         </g>
        </g>
        <g>
         <g>
          <path id="_588493872" class="fil4" d="M2.30591 4.17426c0.0112677,0 0.0214685,-0.00436614 0.0290984,-0.0115 -0.0015315,-0.0123346 -0.0139685,-0.0219685 -0.0290984,-0.0219685 -0.0151339,0 -0.0275669,0.00963386 -0.0290984,0.0219685 0.00763386,0.00709843 0.0178307,0.0115 0.0290984,0.0115z"/>
         </g>
        </g>
       </g>
       <g>
        <g>
         <g>
          <rect id="_588493056" class="fil10" x="2.38741" y="4.09817" width="0.269201" height="0.0312008"/>
         </g>
        </g>
        <g>
         <g>
          <rect id="_588492216" class="fil10" x="2.38741" y="4.14533" width="0.269201" height="0.0195315"/>
         </g>
        </g>
       </g>
      </g>
     </g>
    </g>
   </g>
   <g id="Layer_18">
   </g>
   <g id="Layer_19">
   </g>
   <g id="Layer_20">
   </g>
   <g id="Layer_21">
   </g>
   <g id="Layer_22">
   </g>
   <g id="Layer_23">
   </g>
   <g id="Layer_24">
   </g>
   <g id="Layer_25">
   </g>
   <g id="Layer_26">
   </g>
  </g>
 </g>
 <rect class="fil11" width="6.82666" height="6.82666"/>
</svg>
