<?xml version="1.0" encoding="utf-8"?>
<!-- Generator: Adobe Illustrator 16.0.0, SVG Export Plug-In . SVG Version: 6.00 Build 0)  -->
<!DOCTYPE svg PUBLIC "-//W3C//DTD SVG 1.1//EN" "http://www.w3.org/Graphics/SVG/1.1/DTD/svg11.dtd">
<svg version="1.1" id="icons" xmlns="http://www.w3.org/2000/svg" xmlns:xlink="http://www.w3.org/1999/xlink" x="0px" y="0px"
	 width="64px" height="64px" viewBox="0 0 64 64" enable-background="new 0 0 64 64" xml:space="preserve">
<g>
	<path fill="#48CFAD" d="M23.976,29.502c0,0.551,0.45,1,1,1h36c0.55,0,1-0.449,1-1V2.5c0-0.549-0.45-1-1-1h-36c-0.55,0-1,0.451-1,1
		V29.502z"/>
	<path fill="#656D78" d="M16.976,47.49v0.01c0,0-2,4-7,4s-7-4-7-4v-0.01v-4c0-3.859,3.13-6.99,7-6.99s7,3.131,7,6.99V47.49z"/>
	<path fill="#545C66" d="M9.976,36.5c-0.516,0-1.018,0.061-1.502,0.166c3.146,0.686,5.499,3.479,5.499,6.824v4v0.01
		c0,2.791-1.64,5.201-4,6.311c-0.473,0.229-0.974,0.4-1.497,0.516c0.484,0.105,0.986,0.164,1.5,0.164c1.08,0,2.09-0.24,3-0.68
		c2.36-1.109,4-3.52,4-6.311v-0.01v-4C16.976,39.631,13.846,36.5,9.976,36.5z"/>
	<polygon fill="#E6E9ED" points="8.976,21.5 9.976,22.49 11.976,21.49 13.976,22.49 14.976,21.49 11.976,28.5 	"/>
	<path fill="#EAC6BB" d="M4.976,9.631c5.81,0.68,8.13-1.27,10-1.65c1.24-0.26,2.28,0.15,4,2.391v2.119v0.01
		c0,2.791-1.64,5.201-4,6.311c-0.91,0.439-1.93,0.68-3,0.68s-2.09-0.24-3-0.68c-2.36-1.109-4-3.52-4-6.311v-0.01V9.631z"/>
	<path fill="#D3B1A9" d="M15.973,7.949v4.541v0.01c0,2.791-1.64,5.201-4,6.311c-0.473,0.229-0.976,0.4-1.499,0.516
		c0.485,0.105,0.987,0.164,1.502,0.164c1.07,0,2.09-0.24,3-0.68c2.36-1.109,4-3.52,4-6.311v-0.01v-2.119
		C17.729,8.746,16.84,8.092,15.973,7.949z"/>
	<path fill="#FFCE54" d="M16.966,3.91l-1.99,4.061v0.01c-1.87,0.381-4.19,2.33-10,1.65c-0.32-0.041-0.66-0.09-1-0.141V9
		c0-4.139,3.36-7.5,7.5-7.5C13.646,1.5,15.605,2.43,16.966,3.91z"/>
	<path fill="#F5F7FA" d="M11.976,21.49l-2,1l-1-0.99v-0.01v-2.67v-0.01c0.91,0.439,1.93,0.68,3,0.68s2.09-0.24,3-0.68v0.01v2.67
		l-1,1L11.976,21.49z"/>
	<path fill="#656D78" d="M18.976,31.5h-14h-4v-6c0-2.209,1.79-4,4-4h4l3,7l3-7.01l9,0.01c1.66,0,3-1.34,3-3c0-1.109,0.9-2,2-2
		s2,0.891,2,2c0,3.871-3.13,7-7,7h-5V31.5z"/>
	<path fill="#FFD2A6" d="M61.976,28.5c0.55,0,1,0.451,1,1v1c0,0.551-0.45,1-1,1h-34c-0.55,0-1.45,0-2,0h-2c-0.55,0-1-0.449-1-1v-1
		c0-0.549,0.45-1,1-1H61.976z"/>
	<path fill="#F6BB42" d="M18.976,10.371c-1.72-2.24-2.76-2.65-4-2.391v-0.01l1.99-4.061c1.25,1.34,2.01,3.121,2.01,5.09V10.371z"/>
	<path fill="#A0D468" d="M25.976,56.5h3v-0.01l3,1l3-1v0.01h3v-0.01c1.66,0,3,1.35,3,3v3.01h-18v-3.01c0-1.65,1.34-3,3-3V56.5z"/>
	<g>
		<polygon fill="#8CC152" points="34.976,56.49 34.976,56.49 34.975,56.49 		"/>
		<polygon fill="#8CC152" points="34.946,56.5 34.973,56.5 34.973,56.49 		"/>
		<path fill="#8CC152" d="M37.976,56.49v0.01h-2.906c1.614,0.053,2.903,1.373,2.903,2.99v3.01h3.003v-3.01
			C40.976,57.84,39.636,56.49,37.976,56.49z"/>
	</g>
	<path fill="#E6E9ED" d="M18.976,59.49v3.01h-18v-3.01c0-1.65,1.34-3,3-3v0.01h3v-0.01h6v0.01h3v-0.01
		C17.636,56.49,18.976,57.84,18.976,59.49z"/>
	<g>
		<polygon fill="#CCD1D9" points="12.976,56.49 12.973,56.49 12.976,56.49 		"/>
		<path fill="#CCD1D9" d="M15.976,56.49v0.01h-2.906c1.614,0.053,2.903,1.373,2.903,2.99v3.01h3.003v-3.01
			C18.976,57.84,17.636,56.49,15.976,56.49z"/>
	</g>
	<path fill="#FC6E51" d="M40.976,44.541V54.5h-6h-6h-6v-9.959c0-4.971,4.03-9,9-9S40.976,39.57,40.976,44.541z"/>
	<path fill="#E9573F" d="M31.976,35.541c-0.513,0-1.012,0.053-1.502,0.135c4.254,0.717,7.499,4.408,7.499,8.865V54.5h3.003v-9.959
		C40.976,39.57,36.945,35.541,31.976,35.541z"/>
	<path fill="#F5F7FA" d="M56.976,53.82v2.67h-6v-2.67v-0.01c0.91,0.439,1.93,0.68,3,0.68c1.08,0,2.09-0.24,3-0.68V53.82z"/>
	<polygon fill="#EAC6BB" points="34.976,54.5 34.976,56.49 31.976,57.49 28.976,56.49 28.976,54.5 	"/>
	<path fill="#965353" d="M57.976,36.5v3c1.66,0,2.99,1.33,3,2.99v0.01v4.99v0.01c0,0-2,4-7,4s-7-4-7-4v-0.01V42.5v-0.01
		c0.01-3.32,2.68-5.99,6-5.99H57.976z"/>
	<path fill="#E6E9ED" d="M62.976,59.49v3.01h-18v-3.01c0-1.65,1.34-3,3-3v0.01h3v-0.01h6v0.01h3v-0.01
		C61.636,56.49,62.976,57.84,62.976,59.49z"/>
	<path fill="#EAC6BB" d="M53.976,54.49c-1.07,0-2.09-0.24-3-0.68c-2.36-1.109-4-3.52-4-6.311c0,0,2,4,7,4s7-4,7-4
		c0,2.791-1.64,5.201-4,6.311C56.065,54.25,55.056,54.49,53.976,54.49z"/>
	<path fill="#D3B1A9" d="M57.06,50.918c-0.709,1.256-1.78,2.277-3.087,2.893c-0.473,0.229-0.974,0.4-1.497,0.516
		c0.242,0.053,0.488,0.094,0.738,0.121c0.251,0.027,0.504,0.043,0.762,0.043c1.08,0,2.09-0.24,3-0.68c2.36-1.109,4-3.52,4-6.311
		C60.976,47.5,59.813,49.811,57.06,50.918z"/>
	<path fill="#844747" d="M57.976,39.5v-3h-3v3c0,1.658,1.343,3,3,3v5h-0.003c0,1.246-0.341,2.406-0.913,3.418
		c2.754-1.107,3.916-3.418,3.916-3.418v-0.01V42.5v-0.01C60.966,40.83,59.636,39.5,57.976,39.5z"/>
	<path fill="#EAC6BB" d="M9.976,54.49c-1.07,0-2.09-0.24-3-0.68c-2.36-1.109-4-3.52-4-6.311c0,0,2,4,7,4s7-4,7-4
		c0,2.791-1.64,5.201-4,6.311C12.065,54.25,11.056,54.49,9.976,54.49z"/>
	<path fill="#F5F7FA" d="M12.976,56.49h-6v-2.67v-0.01c0.91,0.439,1.93,0.68,3,0.68c1.08,0,2.09-0.24,3-0.68v0.01V56.49z"/>
	<path fill="#D3B1A9" d="M13.06,50.918c-0.709,1.256-1.78,2.277-3.087,2.893c-0.473,0.229-0.974,0.4-1.497,0.516
		c0.242,0.053,0.488,0.094,0.738,0.121c0.251,0.027,0.504,0.043,0.762,0.043c1.08,0,2.09-0.24,3-0.68c2.36-1.109,4-3.52,4-6.311
		C16.976,47.5,15.813,49.811,13.06,50.918z"/>
	<g>
		<polygon fill="#CCD1D9" points="57.024,56.49 57.021,56.49 57.024,56.49 		"/>
		<path fill="#CCD1D9" d="M60.024,56.49v0.01h-2.906c1.614,0.053,2.903,1.373,2.903,2.99v3.01h3.003v-3.01
			C63.024,57.84,61.685,56.49,60.024,56.49z"/>
	</g>
	<g>
		<path fill="#E6E9ED" d="M42.975,17.502c-3.309,0-6-2.691-6-6s2.691-6,6-6s6,2.691,6,6S46.283,17.502,42.975,17.502z M42.975,7.502
			c-2.206,0-4,1.795-4,4c0,2.207,1.794,4,4,4s4-1.793,4-4C46.975,9.297,45.181,7.502,42.975,7.502z"/>
	</g>
	<g>
		<path fill="#E6E9ED" d="M38.1,17.377c-0.256,0-0.512-0.098-0.707-0.293c-0.391-0.391-0.391-1.023,0-1.414l9.75-9.75
			c0.391-0.391,1.023-0.391,1.414,0s0.391,1.023,0,1.414l-9.75,9.75C38.611,17.279,38.355,17.377,38.1,17.377z"/>
	</g>
	<g>
		<path fill="#E6E9ED" d="M50.976,21.5h-16c-0.553,0-1-0.447-1-1s0.447-1,1-1h16c0.553,0,1,0.447,1,1S51.528,21.5,50.976,21.5z"/>
	</g>
	<g>
		<path fill="#E6E9ED" d="M45.976,24.5h-6c-0.553,0-1-0.447-1-1s0.447-1,1-1h6c0.553,0,1,0.447,1,1S46.528,24.5,45.976,24.5z"/>
	</g>
	<path fill="#545C66" d="M5.477,25.5c-0.553,0-1,0.447-1,1v5h1V25.5z"/>
</g>
</svg>
